<?xml version="1.0" standalone="no"?>
<!DOCTYPE svg PUBLIC "-//W3C//DTD SVG 20010904//EN"
 "http://www.w3.org/TR/2001/REC-SVG-20010904/DTD/svg10.dtd">
<svg version="1.0" xmlns="http://www.w3.org/2000/svg"
 width="400.000000pt" height="400.000000pt" viewBox="0 0 400.000000 400.000000"
 preserveAspectRatio="xMidYMid meet">
<metadata>
Created by potrace 1.11, written by Peter Selinger 2001-2013
</metadata>
<g transform="translate(0.000000,400.000000) scale(0.100000,-0.100000)"
fill="#000000" stroke="none">
<path d="M0 2000 l0 -2000 2000 0 2000 0 0 2000 0 2000 -2000 0 -2000 0 0
-2000z m2663 505 c150 -26 265 -103 321 -214 14 -27 22 -52 18 -54 -4 -3 -50
-17 -102 -32 l-94 -28 -15 24 c-55 87 -156 139 -270 139 -142 0 -233 -51 -291
-164 l-35 -69 0 -146 c0 -139 1 -149 28 -206 34 -73 76 -118 142 -153 46 -25
59 -27 165 -26 123 1 197 19 267 67 32 22 33 23 33 100 l0 77 -135 0 -135 0 0
85 0 85 235 0 235 0 0 -208 0 -208 -48 -37 c-148 -112 -403 -169 -600 -133
-274 49 -422 244 -422 556 0 359 196 556 555 559 39 0 105 -6 148 -14z m-1059
-24 c68 -27 139 -88 167 -143 41 -81 41 -236 -1 -318 -30 -59 -85 -109 -159
-144 l-66 -31 -222 -3 -223 -4 0 -214 0 -214 -75 0 -75 0 0 551 0 551 298 -4
c284 -4 300 -5 356 -27z m1822 -283 c-4 -172 -9 -350 -12 -395 l-6 -83 -53 0
-53 0 -6 93 c-3 50 -8 228 -12 395 l-6 302 77 0 77 0 -6 -312z m4 -708 l0 -80
-75 0 -75 0 0 80 0 80 75 0 75 0 0 -80z"/>
<path d="M1100 2176 l0 -216 189 0 c207 0 252 9 305 58 40 38 57 84 57 156 0
99 -27 147 -106 189 -36 20 -59 22 -242 25 l-203 4 0 -216z"/>
</g>
</svg>
